# xmcd CD database file
#
# Track frame offsets:
#	182
#	17825
#	23670
#	41190
#	51507
#	67950
#	81275
#	98297
#	113037
#	134682
#	151905
#	164152
#	176477
#	194785
#	218340
#	237897
#
# Disc length: 3382 seconds
#
# Revision: 0
# Processed by: cddbd v1.5.2PL0 Copyright (c) Steve Scherf et al.
# Submitted via: CDex 1.70beta2
#
DISCID=d90d3410
DTITLE=Louis Armstrong - Black and Blue
DYEAR=1900
DGENRE=Jazz
TTITLE0=Muskrat Ramble
TTITLE1=Talking
TTITLE2=Do You Know What it Means to Miss New Orleans?
TTITLE3=Talking
TTITLE4=Boogie Woogie on St. Louis Blues
TTITLE5=Struttin' With Some Barbecue
TTITLE6=Little White Lies
TTITLE7=Black and Blue
TTITLE8=Medley: Shadrack - When the Saints go Marching In
TTITLE9=C-Jam Blues
TTITLE10=Baby, Won't You Please Come Home?
TTITLE11=I Gotta Right to Sing the Blues
TTITLE12=Velma's Blues
TTITLE13=Body and Soul
TTITLE14=Where the Blues was Born in New Orleans
TTITLE15=A Song was Born
EXTD=
EXTT0=
EXTT1=
EXTT2=
EXTT3=
EXTT4=
EXTT5=
EXTT6=
EXTT7=
EXTT8=
EXTT9=
EXTT10=
EXTT11=
EXTT12=
EXTT13=
EXTT14=
EXTT15=
PLAYORDER=
